<?xml version="1.0" encoding="UTF-8" standalone="no"?>
<svg
   xmlns:dc="http://purl.org/dc/elements/1.1/"
   xmlns:cc="http://creativecommons.org/ns#"
   xmlns:rdf="http://www.w3.org/1999/02/22-rdf-syntax-ns#"
   xmlns:svg="http://www.w3.org/2000/svg"
   xmlns="http://www.w3.org/2000/svg"
   xmlns:sodipodi="http://sodipodi.sourceforge.net/DTD/sodipodi-0.dtd"
   xmlns:inkscape="http://www.inkscape.org/namespaces/inkscape"
   inkscape:version="1.0 (4035a4fb49, 2020-05-01)"
   sodipodi:docname="neurol_2.svg"
   viewBox="0 0 1024 768"
   height="768"
   width="1024"
   id="svg10"
   version="1.1">
  <metadata
     id="metadata16">
    <rdf:RDF>
      <cc:Work
         rdf:about="">
        <dc:format>image/svg+xml</dc:format>
        <dc:type
           rdf:resource="http://purl.org/dc/dcmitype/StillImage" />
        <dc:title></dc:title>
      </cc:Work>
    </rdf:RDF>
  </metadata>
  <defs
     id="defs14">
    <filter
       id="filter148"
       inkscape:label="Clean Edges"
       style="color-interpolation-filters:sRGB;">
      <feGaussianBlur
         id="feGaussianBlur142"
         result="blur"
         stdDeviation="1.17183" />
      <feComposite
         id="feComposite144"
         result="composite1"
         operator="in"
         in2="blur"
         in="SourceGraphic" />
      <feComposite
         id="feComposite146"
         result="composite2"
         operator="in"
         k2="1"
         in2="composite1"
         in="composite1" />
    </filter>
  </defs>
  <sodipodi:namedview
     inkscape:current-layer="g18"
     inkscape:window-maximized="1"
     inkscape:window-y="-8"
     inkscape:window-x="-8"
     inkscape:cy="269.89293"
     inkscape:cx="256.33671"
     inkscape:zoom="0.75866665"
     showgrid="false"
     id="namedview12"
     inkscape:window-height="1014"
     inkscape:window-width="1920"
     inkscape:pageshadow="2"
     inkscape:pageopacity="0"
     guidetolerance="10"
     gridtolerance="10"
     objecttolerance="10"
     borderopacity="1"
     bordercolor="#666666"
     pagecolor="#ffffff" />
  <g
     id="g18"
     inkscape:label="Image"
     inkscape:groupmode="layer">
    <path
       id="path272"
       d="m 724.94184,572.86746 c -1.43635,-0.58482 -2.21361,-2.22218 -3.4846,-7.34068 -0.25031,-1.00807 -0.73902,-13.04254 -1.08601,-26.74327 -0.347,-13.70073 -1.2362,-39.25294 -1.97601,-56.78269 -1.54166,-36.52921 -2.51713,-64.67181 -3.18722,-91.95128 -0.25736,-10.47701 -0.58297,-18.22526 -0.72358,-17.21834 -6.60137,47.27047 -11.35498,76.02488 -17.01379,102.91586 -6.3282,30.07189 -9.50348,36.86161 -15.41454,32.96095 -2.7881,-1.83985 -3.66236,-4.20208 -7.65332,-20.67918 -4.17823,-17.25025 -5.81524,-23.02425 -6.5283,-23.02634 -0.26887,-7.9e-4 -4.421,4.0614 -9.22695,9.0271 -9.30473,9.61402 -13.04823,12.153 -17.89751,12.13876 -4.39107,-0.0129 -7.73882,-3.59323 -13.73808,-14.69246 -3.84914,-7.1213 -5.27428,-9.14742 -6.37384,-9.06163 -0.77892,0.0608 -4.06023,3.00072 -7.29179,6.53321 -12.70188,13.88468 -15.98786,16.91057 -19.31722,17.78827 -7.44668,1.96311 -14.54957,-4.14828 -20.28202,-17.45082 -1.27497,-2.95867 -2.50809,-5.5706 -2.74026,-5.80431 -0.56861,-0.57236 -9.34185,4.61878 -19.05805,11.27668 -4.37464,2.99765 -9.44975,5.896 -11.27804,6.44077 -7.58469,2.25998 -13.09968,-0.98153 -18.45269,-10.84584 l -2.04032,-3.7598 -7.34025,6.98789 c -9.13495,8.69642 -13.32478,11.44052 -17.44948,11.4284 -5.46829,-0.0161 -7.32601,-2.32169 -11.59802,-14.39437 -1.39029,-3.92893 -2.84398,-7.46179 -3.23044,-7.85079 -1.25768,-1.26598 -7.50252,3.11556 -14.66463,10.28908 -10.43282,10.44945 -13.32147,11.90153 -18.40494,9.25197 -2.1152,-1.10247 -4.74271,-5.8248 -7.65584,-13.75955 -1.95684,-5.33002 -3.94892,-4.94798 -16.10719,3.08897 -11.96886,7.91176 -17.75036,9.10213 -22.4052,4.61309 -2.25008,-2.16994 -5.57792,-9.61375 -7.59783,-16.99509 -0.6897,-2.52035 -1.52954,-4.58327 -1.8663,-4.58426 -0.33676,-9.9e-4 -4.24601,3.41452 -8.68722,7.59002 -4.44122,4.1755 -9.50938,8.28151 -11.26259,9.12447 -5.80216,2.78974 -12.91746,1.52624 -17.15498,-3.04629 -0.89447,-0.96517 -3.07276,-4.31228 -4.84066,-7.438 l -3.21435,-5.68315 -8.31127,8.8022 c -11.16191,11.82123 -15.66254,13.79564 -23.13428,10.14896 -4.0755,-1.9891 -6.37802,-4.82438 -9.94273,-12.24326 -1.5995,-3.3289 -3.13451,-6.0532 -3.41114,-6.05402 -0.27662,-8.1e-4 -2.92966,2.54636 -5.89564,5.66037 -16.42078,17.2404 -17.90408,18.44568 -22.68326,18.43164 -3.58638,-0.0105 -6.8143,-3.71887 -11.3481,-13.03707 -2.20869,-4.53949 -4.30134,-8.25445 -4.65032,-8.25547 -1.39744,-0.004 -6.65003,4.07615 -12.21407,9.48798 -7.89017,7.67432 -10.74465,9.4923 -14.88513,9.48014 -2.87601,-0.008 -3.64656,-0.37191 -5.92939,-2.79678 -2.95711,-3.14111 -4.64663,-7.01384 -8.43032,-19.32401 -3.55419,-11.56351 -3.52643,-11.53219 -8.1575,-9.20088 -4.88701,2.46016 -10.69451,7.8263 -16.4632,15.21203 -9.60295,12.29477 -12.20805,14.23296 -15.90487,11.83315 -0.91715,-0.59537 -2.45276,-2.87346 -3.41248,-5.06242 -1.98695,-4.53194 -6.62912,-9.81508 -13.36724,-15.21292 -3.01362,-2.4142 -4.38239,-3.96067 -3.9161,-4.42454 0.82923,-0.82497 2.52275,-0.02 1.93774,0.92103 -0.21547,0.34662 -0.007,0.8699 0.46381,1.16285 0.53435,0.33264 0.66039,0.21449 0.3357,-0.3147 -0.97424,-1.58787 0.65889,-0.83207 5.41343,2.50532 6.00245,4.21334 9.65074,7.67934 12.55018,11.92312 l 2.28409,3.34312 1.76457,-2.13085 c 0.97052,-1.17198 3.03751,-3.94032 4.59332,-6.15188 7.09079,-10.07947 14.67683,-17.27848 21.66932,-20.56374 5.50572,-2.58674 8.37023,-2.63299 11.2639,-0.18187 1.84498,1.56283 2.87817,3.94843 6.20731,14.33252 3.7624,11.73549 6.11437,16.80251 7.80157,16.80746 0.40325,10e-4 4.09642,-3.20366 8.20705,-7.12189 9.36016,-8.92204 14.38535,-12.22577 18.57748,-12.21345 4.27238,0.0125 6.00721,1.90404 11.2457,12.26125 2.41013,4.76515 4.78938,8.6651 5.28723,8.66656 0.91016,0.003 8.14136,-7.13525 14.79953,-14.60862 5.99874,-6.73321 9.84321,-9.47819 13.27309,-9.47709 3.78416,10e-4 5.68992,1.94754 9.70427,9.91089 6.7604,13.41072 9.44728,13.5354 20.44476,0.9487 8.35484,-9.56217 11.17975,-11.81157 14.82018,-11.80088 3.60242,0.0106 5.06034,1.36098 8.41412,7.79351 3.00058,5.75509 6.24924,9.81889 8.27913,10.35646 2.55374,0.67631 6.19794,-1.66049 13.23858,-8.48907 15.63512,-15.16422 19.26271,-15.16471 24.19785,-0.003 3.90362,11.9925 5.03169,14.29253 7.01272,14.29835 0.94707,0.003 4.91489,-2.14762 8.81739,-4.77868 9.48539,-6.395 13.62807,-8.38803 18.43833,-8.87056 7.03923,-0.70613 9.50129,1.65596 13.58839,13.03662 2.21248,6.16071 1.81829,6.25536 10.55924,-2.53566 9.50561,-9.56006 15.58086,-13.50485 20.77491,-13.4896 2.96321,0.009 3.7049,0.33874 5.57193,2.4793 1.18454,1.35808 3.068,5.07242 4.18547,8.2541 3.17439,9.03815 4.56692,12.02134 5.60115,11.99918 1.36258,-0.0292 2.91061,-1.30428 10.67194,-8.79025 8.25113,-7.95839 12.16539,-10.0367 16.45494,-8.73687 2.3025,0.69771 3.20861,1.55428 4.81824,4.55485 3.25592,6.06945 5.87029,9.38508 7.78378,9.87166 2.12229,0.53967 3.80087,-0.37081 17.05476,-9.25066 5.16086,-3.45767 10.86806,-7.03708 12.68267,-7.95425 5.87165,-2.96773 11.56899,-1.84491 12.8647,2.53533 1.48293,5.01315 7.75185,16.59413 10.11159,18.67977 2.53152,2.23747 2.72177,2.28691 4.76365,1.23786 1.16975,-0.60098 4.92892,-4.33033 8.35373,-8.28744 11.36102,-13.12686 15.13758,-16.19288 19.92829,-16.1788 1.90989,0.006 3.7496,0.53492 4.8277,1.38899 0.95803,0.75897 4.01846,5.72133 6.80095,11.02747 5.87091,11.19572 6.95688,12.59625 9.3078,12.0038 0.92227,-0.23242 6.13755,-4.93698 11.58951,-10.45459 10.63681,-10.76487 12.60442,-11.93946 16.95472,-10.12125 3.27847,1.37023 4.64022,4.86764 9.04127,23.22075 2.19535,9.15501 4.11214,16.76687 4.25953,16.91524 1.81645,1.82842 13.62855,-62.20875 19.812,-107.40709 5.57187,-40.72795 11.91232,-96.30788 11.9597,-104.83782 0.009,-1.61961 1.56496,-3.38469 3.47982,-3.9475 1.19358,-0.35081 2.13355,0.0195 3.47341,1.36814 l 1.837,1.84911 -0.1673,57.02734 c -0.16845,57.42016 -0.0794,61.30694 3.25872,142.31688 0.77217,18.73864 1.61644,41.60207 1.87617,50.80761 l 0.47223,16.73736 5.83873,-19.28294 c 3.21131,-10.60561 8.78609,-29.16443 12.38841,-41.24183 9.19493,-30.82764 10.73013,-35.20366 12.96318,-36.95081 2.91934,-2.28412 7.14726,-1.65328 9.53072,1.42206 1.63545,2.11019 3.8193,10.40018 5.99983,22.77555 2.06113,11.69776 4.01062,20.48133 4.69975,21.17499 0.17913,0.18033 3.28166,-2.50699 6.8945,-5.9718 10.00883,-9.59875 16.41326,-13.16998 25.18422,-14.04319 3.98989,-0.39723 4.68602,-0.29412 4.68312,0.69371 -0.002,0.71223 -1.21944,1.57093 -3.15224,2.22365 -4.93904,1.66789 -9.15478,4.95965 -16.1664,12.62311 -13.79192,15.07409 -15.59091,16.39519 -20.01988,14.70163 -5.64988,-2.16042 -7.05979,-6.24279 -12.07204,-34.95436 -0.6567,-3.76177 -1.43396,-6.56627 -1.72724,-6.23222 -0.29328,0.33405 -2.12382,6.04229 -4.06786,12.68497 -6.86433,23.45498 -21.87847,72.80485 -23.45227,77.0851 -2.72539,7.41223 -8.02882,14.55542 -10.64954,14.34389 -0.32838,-0.0265 -1.30436,-0.33617 -2.16885,-0.68814 z m 6.88664,-6.44052 c 3.6704,-5.44506 5.80354,-11.74551 19.12631,-56.49148 13.46544,-45.22519 13.43717,-45.13783 14.60264,-45.13441 1.05893,0.003 2.2534,5.00055 5.51299,23.06533 2.18463,12.10728 3.9283,17.27744 6.58623,19.52888 3.86048,3.27008 5.34353,2.69141 12.35602,-4.82123 10.65444,-11.41434 16.79578,-17.28065 19.66788,-18.78711 3.3811,-1.77339 2.07952,-1.95222 -2.17501,-0.29885 -5.46301,2.123 -10.80082,5.96292 -18.1472,13.05476 -3.92611,3.79006 -7.47912,6.89003 -7.8956,6.88881 -1.60854,-0.005 -3.16189,-5.80917 -6.32866,-23.64848 -3.59089,-20.22844 -5.17009,-24.00462 -10.04472,-24.01894 -3.96326,-0.0116 -3.36313,-1.62325 -19.34819,51.95811 -12.84538,43.05724 -14.82475,49.04098 -16.22105,49.03688 -0.73426,-0.002 -1.04443,-3.76142 -1.37549,-16.67081 -0.46183,-18.00919 -1.37305,-41.94837 -2.46119,-64.65961 -2.3471,-48.98777 -2.90992,-74.39395 -2.87277,-129.67952 0.0216,-32.03308 -0.20314,-58.98445 -0.49927,-59.89192 -0.31409,-0.96248 -1.13446,-1.65169 -1.96896,-1.65414 -0.80277,-0.002 -1.71801,0.71829 -2.08565,1.64223 -0.36031,0.90554 -1.2256,8.40304 -1.92285,16.66112 -4.08388,48.36814 -15.13357,126.69435 -24.22566,171.72468 -4.08681,20.24066 -6.28509,28.18683 -7.79657,28.18239 -1.06207,-0.003 -2.29852,-4.17056 -6.53911,-22.04008 -3.07397,-12.95353 -4.31752,-16.63574 -6.35575,-18.81967 -3.43285,-3.67824 -7.19482,-1.58091 -17.07194,9.51771 -5.73645,6.44588 -10.37687,9.97798 -13.09844,9.96998 -2.52508,-0.007 -4.53446,-2.66793 -9.91578,-13.12891 -4.60322,-8.9484 -6.97492,-11.82928 -9.74524,-11.83741 -3.07347,-0.009 -8.71958,4.70617 -16.69616,13.94336 -10.61566,12.29335 -13.07042,13.59395 -17.78783,9.42449 -2.63345,-2.32756 -5.72209,-7.71063 -8.85701,-15.43652 -4.04643,-9.97227 -6.21801,-9.84846 -23.01396,1.31213 -14.70963,9.77426 -15.645,10.2897 -18.66254,10.28408 -3.41924,-0.006 -5.64309,-2.13322 -9.13563,-8.73715 -4.67421,-8.83829 -8.0105,-8.27187 -20.24316,3.43678 -4.03783,3.86487 -8.27033,7.50359 -9.40553,8.08605 -3.62033,1.85753 -3.8726,1.49228 -10.00607,-14.48699 -3.23004,-8.4151 -5.67597,-9.82303 -11.7325,-6.75344 -4.99203,2.53007 -9.55999,6.30365 -16.46528,13.60191 -8.14789,8.61156 -8.72175,8.62827 -12.02195,0.35002 -3.39083,-8.50561 -4.2856,-10.03708 -6.70546,-11.47715 -4.13357,-2.45987 -10.72175,-0.11416 -22.2018,7.90496 -6.98752,4.88095 -10.88417,6.19774 -12.90167,4.35984 -1.32365,-1.20582 -3.65659,-6.87427 -6.17323,-14.99937 -1.73423,-5.59906 -2.97294,-7.86123 -5.05804,-9.23717 -1.68462,-1.11166 -1.95789,-1.08097 -4.54897,0.51104 -1.51619,0.93156 -6.29709,5.05353 -10.62423,9.15993 -9.00072,8.54156 -11.44046,10.06776 -15.12093,9.45897 -3.33077,-0.55093 -5.53665,-2.71568 -8.71961,-8.55703 -4.09764,-7.51997 -5.80954,-9.54093 -8.08748,-9.54762 -2.80595,-0.008 -4.31893,1.22693 -12.3498,10.08223 -3.89534,4.29522 -8.17072,8.54806 -9.50085,9.45076 -5.51631,3.74364 -10.44337,0.74978 -15.04718,-9.14321 -2.54086,-5.46 -6.08104,-9.78344 -8.01566,-9.78912 -2.27848,-0.007 -6.27933,2.99601 -11.02676,8.27579 -14.09229,15.67251 -17.03323,18.06711 -19.31014,15.72288 -0.54148,-0.5575 -2.67701,-4.48016 -4.74561,-8.71703 -2.06861,-4.23687 -4.61012,-8.6125 -5.64781,-9.72361 -3.97553,-4.25683 -8.71384,-2.09177 -21.12874,9.65428 -11.61412,10.9884 -12.51222,10.58666 -18.629,-8.33322 -2.05853,-6.36728 -4.45039,-12.63808 -5.31525,-13.9351 -2.21261,-3.31828 -5.53866,-3.51123 -11.17095,-0.64804 -6.36242,3.23434 -11.0817,7.80528 -19.35016,18.74188 -4.09338,5.41427 -7.89588,9.84278 -8.45001,9.84116 -0.55414,-0.002 -2.02314,-1.48947 -3.26444,-3.30632 -1.24131,-1.81684 -2.34751,-3.30362 -2.45823,-3.30394 -0.11072,-3.3e-4 0.74157,1.98021 1.89399,4.40119 3.35593,7.05009 4.59834,6.42568 16.24595,-8.16489 8.4556,-10.59205 16.21404,-16.64832 21.3083,-16.63335 2.30395,0.007 2.72276,0.81304 6.30306,12.13452 4.89358,15.4743 7.19857,19.54079 11.63689,20.52997 3.00198,0.66906 5.72881,-1.0457 14.13328,-8.88766 8.138,-7.59332 12.79696,-10.75673 14.73591,-10.00563 0.67828,0.26276 3.04939,4.14951 5.26913,8.63725 4.92708,9.96126 6.83757,12.19706 10.4314,12.20762 3.30022,0.01 6.77714,-2.77875 15.92765,-12.7738 8.88245,-9.70224 10.87788,-11.50614 12.39299,-11.20349 1.41796,0.28326 1.40103,0.2568 5.0919,7.95814 3.16405,6.60207 6.08182,9.83923 10.35251,11.48576 5.54453,2.13765 7.81583,0.88342 18.90527,-10.43959 5.25017,-5.36076 9.93959,-9.74041 10.42092,-9.73257 0.48134,0.008 2.04335,2.25486 3.47115,4.99336 4.59109,8.80569 9.62533,13.30776 14.95208,13.3715 3.35531,0.0402 8.31263,-3.11997 15.3675,-9.79626 7.30756,-6.91542 10.87762,-9.89088 11.86391,-9.88799 0.31506,9.3e-4 1.78823,3.71407 3.27371,8.25143 3.7667,11.50531 5.49618,14.74606 8.68323,16.27096 2.34099,1.12009 3.00025,1.14713 6.09257,0.24987 1.90714,-0.55338 6.94782,-3.328 11.2015,-6.16583 6.93288,-4.62524 12.91564,-7.49348 15.61387,-7.48555 1.61139,0.005 3.23684,2.39749 5.19263,7.64387 2.60016,6.97487 3.75342,9.03854 5.80918,10.39512 3.3379,2.20266 5.77694,0.86009 14.61475,-8.04469 7.6222,-7.67995 14.56426,-12.78344 17.39971,-12.79148 1.24787,-0.004 3.07961,3.74383 5.3759,10.998 2.53184,7.99825 5.8405,12.47144 9.23206,12.4814 2.81202,0.008 7.26789,-3.05022 14.73114,-10.11139 7.39321,-6.9949 9.9837,-8.73447 11.55256,-7.7578 0.41126,0.25603 1.4454,1.84629 2.29809,3.53392 3.77132,7.46411 7.84331,10.77926 13.2597,10.79517 2.92033,0.009 4.27635,-0.61133 10.54305,-4.81972 10.80141,-7.25371 22.31931,-14.13147 23.65878,-14.12754 0.80077,0.002 2.08031,2.12831 3.92181,6.51611 4.76603,11.35611 10.65873,17.70269 16.4525,17.71971 3.28327,0.01 7.28966,-3.3148 16.71563,-13.87039 9.27806,-10.38996 11.94839,-12.52234 14.05576,-11.22415 0.67721,0.41718 2.95058,4.03121 5.05195,8.03119 5.85609,11.14712 8.61879,14.84516 11.81365,15.81328 4.2506,1.28803 7.79277,-0.97829 18.03463,-11.53871 10.71986,-11.0533 11.55533,-11.28136 14.02027,-3.82702 0.86689,2.62161 3.14096,11.3462 5.05348,19.38797 3.53422,14.86065 5.20547,18.91963 7.95831,19.32849 4.51861,0.6711 10.25662,-21.19147 18.84732,-71.81073 3.81692,-22.49057 4.98502,-30.16069 8.88801,-58.36164 1.25421,-9.0623 2.49701,-17.63013 2.76177,-19.03962 l 0.48139,-2.5627 0.88991,2.93304 c 0.61661,2.03224 0.89598,10.24543 0.90965,26.74275 0.0109,13.09534 0.18355,26.1179 0.38377,28.93902 0.20023,2.82112 0.8229,18.1527 1.38372,34.07019 0.5608,15.91749 1.30934,35.20552 1.6634,42.86228 0.35406,7.65676 0.96104,25.79052 1.34885,40.29723 0.7306,27.32885 1.47343,37.20901 2.9304,38.97631 1.62612,1.97249 3.8391,0.70803 7.02026,-4.01125 z M 645.5844,418.44895 c -3.20473,-1.4063 -7.52394,-5.96175 -9.93838,-10.48199 -3.49374,-6.54084 -7.62078,-20.77361 -9.15798,-31.58281 -5.62745,-39.57076 -5.94626,-52.64899 -1.75387,-71.94888 2.29744,-10.57635 2.74452,-14.82131 3.47101,-32.95702 0.19176,-4.78694 0.28644,-5.11662 0.73579,-2.56196 l 0.51572,2.93194 0.17409,-2.92991 c 0.1142,-1.92196 1.02155,1.73516 2.63749,10.63052 3.47259,19.11573 4.46952,26.59963 5.27193,39.57615 0.6965,11.26381 1.5007,17.47579 5.74015,44.33947 2.07297,13.13551 7.30631,33.60533 9.88055,38.64701 1.44095,2.82212 5.55063,3.8101 16.15762,3.88431 8.14215,0.057 9.22629,-0.0961 12.23803,-1.72784 3.63351,-1.96862 4.50314,-1.74307 3.80963,0.98805 -1.01359,3.99161 -7.31605,9.33229 -13.66579,11.58032 -7.99309,2.82983 -21.44874,3.6607 -26.11599,1.61264 z m 18.92299,-1.46899 c 9.21715,-1.91199 16.26707,-6.08705 18.93983,-11.21642 l 0.92359,-1.77249 -1.93676,1.51533 c -4.71285,3.68738 -13.36634,3.83763 -27.99467,0.4861 -1.82804,-0.41883 -3.48966,-4.06981 -6.67924,-14.67588 -3.29271,-10.94898 -3.55741,-12.13902 -5.95967,-26.79419 -3.97818,-24.26916 -5.01742,-32.36665 -6.02729,-46.96308 -0.58604,-8.47042 -1.90004,-19.38666 -3.19615,-26.55235 -1.21054,-6.69259 -2.24126,-12.91653 -2.29048,-13.83096 -0.0492,-0.91443 -0.53345,2.95151 -1.07605,8.59098 -0.5426,5.63946 -2.02421,15.3212 -3.29247,21.51496 -1.89696,9.26407 -2.30923,12.9877 -2.32455,20.9948 -0.0187,9.77702 0.89847,22.86693 2.12823,30.37418 0.3632,2.2172 1.01746,7.1642 1.45391,10.99335 1.1167,9.79729 2.56862,16.90924 5.07414,24.8548 3.88003,12.30443 8.08067,19.02333 13.8281,22.11795 3.24436,1.74687 11.01977,1.89999 18.42953,0.36292 z m -505.42394,-7.66581 c -2.55625,-2.02435 -3.38356,-8.3972 -4.14113,-31.8996 -1.26683,-39.30156 -0.51897,-50.21937 4.15935,-60.72187 4.58611,-10.29547 14.991,-15.77909 29.85719,-15.73541 7.43946,0.0218 11.68224,1.21783 16.58425,4.67488 11.16645,7.87492 14.62885,15.74136 18.64739,42.36609 1.54961,10.26693 1.82562,14.63882 1.78559,28.28315 -0.056,19.0761 -0.63949,27.34744 -1.92905,27.34365 -0.49603,-0.001 -1.25912,-0.9103 -1.69575,-2.01965 -2.672,-6.78886 -13.10192,-48.68334 -15.34208,-61.62545 -1.79253,-10.35606 -4.16826,-16.01429 -8.35508,-19.89908 -3.57366,-3.31587 -6.39899,-4.08842 -13.06553,-3.57263 -6.57606,0.5088 -10.84432,2.58609 -12.52007,6.09332 -4.3578,9.12062 -5.20535,20.32629 -4.34287,57.41761 0.61624,26.50166 0.52319,27.83328 -2.08393,29.82423 -1.77315,1.35408 -5.51057,1.09238 -7.55828,-0.52924 z m 6.80686,-1.34831 c 1.66517,-1.34123 1.66838,-1.38229 1.41545,-18.12781 -0.13943,-9.23094 -0.21004,-25.35488 -0.15691,-35.83098 0.089,-17.54867 0.2292,-19.50822 1.78168,-24.90333 0.92679,-3.22074 2.46997,-7.0607 3.42928,-8.53324 2.46367,-3.78173 7.91974,-5.71922 16.03848,-5.69537 5.67783,0.0167 6.36519,0.18802 9.66567,2.40937 5.30166,3.56821 8.52781,10.47304 10.77209,23.05516 1.96075,10.99256 6.14669,28.6026 11.10828,46.73188 3.14764,11.50125 3.43317,12.19694 3.91367,9.53536 0.28508,-1.57907 0.55859,-10.12376 0.6078,-18.98818 0.0829,-14.93005 -0.0924,-17.27933 -2.37981,-31.89626 -3.26813,-20.88382 -5.87549,-28.00124 -12.82857,-35.01859 -1.7127,-1.72853 -5.26806,-4.21152 -7.90079,-5.51775 -4.54382,-2.25442 -5.19625,-2.37359 -12.85381,-2.34785 -16.1135,0.0542 -24.7502,5.42726 -29.01651,18.05189 -3.66855,10.85575 -4.04139,16.34217 -3.179,46.77886 0.88578,31.26221 1.58613,38.42999 3.94068,40.3311 2.0328,1.64133 3.57367,1.63197 5.64232,-0.0343 z m 374.46405,3.05764 c -6.69359,-0.78118 -14.31307,-3.22766 -22.87479,-7.34471 -12.56545,-6.04229 -21.07546,-17.89504 -22.86433,-31.84545 -1.48388,-11.57199 0.29,-22.62493 4.9642,-30.93173 4.40218,-7.82336 8.98651,-10.10995 17.7625,-8.85965 5.74581,0.8186 15.72061,3.84417 10.74181,3.25822 l -2.92735,-0.34452 2.55911,1.09129 c 1.78576,0.76151 2.00633,0.99053 0.72987,0.75787 -9.1796,-1.67324 -15.35447,-1.08123 -16.75485,1.60634 -1.38676,2.66143 -1.55577,8.27631 -0.54507,18.10804 1.40655,13.68244 2.18034,17.00488 4.95172,21.26121 3.19079,4.90047 8.62312,8.50126 17.12182,11.3491 9.0348,3.02747 16.9185,3.35487 22.43624,0.93175 11.83481,-5.19725 18.05767,-15.29078 17.14811,-27.81437 -0.59775,-8.23039 -3.95334,-14.57247 -11.37662,-21.50186 -3.16809,-2.95731 -7.51577,-6.44055 -9.66152,-7.74053 -4.56664,-2.76668 -21.83713,-7.68062 -24.93507,-7.09474 -2.53584,0.47958 -2.70597,-1.08193 -0.35645,-3.27154 3.95771,-3.68835 25.39678,-5.82252 33.50294,-3.33509 9.47719,2.90815 18.95631,8.77283 23.51697,14.54982 11.19901,14.18583 13.32813,35.78326 5.14866,52.22714 -4.91522,9.88147 -14.62286,18.49026 -25.37247,22.50045 -4.33524,1.61729 -6.44668,2.02729 -14.91097,2.89541 -1.20831,0.12393 -4.81032,-0.0797 -8.00446,-0.45245 z m 15.84592,-2.10964 c 5.31573,-1.10071 13.2518,-4.8618 18.59773,-8.81394 15.84615,-11.71469 21.61964,-34.95438 13.54561,-54.5244 -3.99606,-9.68576 -9.39202,-15.3931 -19.59817,-20.72914 -7.39212,-3.8648 -12.34386,-5.22712 -19.07125,-5.24689 -5.10045,-0.015 -17.11635,1.90991 -20.82209,3.3356 -1.30517,0.50214 -1.22528,0.62073 0.72892,1.08196 7.99737,1.8876 17.36781,4.71596 20.48041,6.18178 5.17068,2.43503 13.30606,8.97371 17.16366,13.79501 5.11307,6.39043 6.92692,11.87133 6.86121,20.73257 -0.0427,5.7614 -0.39861,8.18537 -1.66654,11.35048 -2.45896,6.13833 -7.31278,11.15677 -13.93437,14.40698 -5.27151,2.58753 -6.00189,2.74819 -12.23203,2.69072 -10.79748,-0.0996 -23.16013,-4.82489 -28.83399,-11.02102 -5.28763,-5.77436 -6.46004,-9.74351 -8.09877,-27.4182 -1.3452,-14.50871 -0.26959,-18.27095 5.77368,-20.19497 l 3.47776,-1.10722 -5.29679,0.18811 c -5.04208,0.17906 -5.43591,0.32328 -8.19039,2.99907 -5.8721,5.70439 -9.12408,15.22152 -9.14981,26.77756 -0.0321,14.40205 3.25277,22.8803 12.16729,31.40413 3.0017,2.87013 6.86426,5.94176 8.58348,6.82584 4.41412,2.26986 14.11848,5.85978 18.86981,6.98048 5.08395,1.19916 15.57881,1.35446 20.64464,0.30549 z m -124.97012,0.56407 c -3.06954,-1.89044 -3.66258,-2.78314 -5.44135,-8.19063 -2.4078,-7.31982 -2.67715,-16.30144 -0.78095,-26.04139 1.27831,-6.56615 1.58117,-10.83322 1.61158,-22.70602 0.0296,-11.58619 0.33044,-15.98785 1.44929,-21.20966 2.27606,-10.62259 6.43195,-18.17733 12.08278,-21.96459 6.17948,-4.14156 22.20963,-7.44348 31.60068,-6.50916 7.53937,0.7501 18.9744,3.10073 21.50801,4.42128 2.67734,1.39546 6.70216,6.17153 6.69695,7.94696 -0.005,1.61844 -0.2598,1.61347 -4.88931,-0.0953 l -3.7667,-1.39029 -10.50164,2.38123 c -11.90399,2.69922 -12.87504,2.98724 -20.2297,6.00007 -9.19965,3.76864 -10.14756,4.82026 -12.45565,13.81848 -1.10487,4.3074 -1.29066,9.12309 -1.39297,36.1057 -0.13043,34.40337 -0.0752,33.9755 -4.80008,37.13825 -3.06664,2.05273 -7.6324,2.17875 -10.69094,0.29508 z m 10.71004,-2.92875 c 2.103,-2.09216 2.87599,-3.4828 2.94756,-5.30273 0.0534,-1.35678 0.17815,-15.81836 0.2773,-32.13684 0.16031,-26.38267 0.33069,-30.19713 1.53775,-34.42792 2.23837,-7.84558 3.71147,-9.81505 9.2247,-12.33307 8.55512,-3.90732 14.13935,-5.70905 24.89721,-8.03299 9.06974,-1.95926 10.8883,-2.15341 13.18176,-1.40728 1.46328,0.47604 3.07135,1.19381 3.57349,1.59505 2.09195,1.67158 0.69138,-0.28681 -2.15436,-3.01241 -3.613,-3.46045 -7.78478,-4.83878 -19.34698,-6.39206 -5.88844,-0.79107 -9.2819,-0.87393 -13.73635,-0.33543 -13.89024,1.67922 -20.09838,4.06604 -24.96216,9.59714 -6.61431,7.52179 -9.21225,18.83139 -9.28332,40.41303 -0.0363,11.13284 -0.35537,15.45838 -1.59201,21.60717 -1.72506,8.57724 -1.58887,15.40393 0.45052,22.58286 2.24091,7.88825 4.49386,10.30798 9.66902,10.38475 1.90908,0.0283 3.10846,-0.60325 5.31587,-2.79927 z m -78.79335,2.54188 c -9.8594,-1.32467 -15.7505,-4.26033 -21.43654,-10.68225 -4.28763,-4.84253 -7.85483,-11.76575 -8.8715,-17.21775 -0.79238,-4.24924 0.8743,-21.25961 3.79533,-38.73587 1.52641,-9.13236 2.15298,-11.33914 2.27968,-8.0291 l 0.0678,1.77066 0.56033,-1.82987 c 0.33299,-1.08746 0.57902,1.73689 0.60641,6.96153 0.0564,10.75558 0.82536,15.02108 4.01249,22.25748 1.35666,3.0803 3.02565,7.35257 3.70886,9.49394 1.58733,4.9751 6.58813,12.48393 9.71147,14.58201 5.21942,3.50609 15.18067,3.98683 21.85717,1.05484 4.81781,-2.11574 10.95986,-8.2665 12.3111,-12.32854 0.62256,-1.87154 1.97248,-8.67509 2.9998,-15.11899 1.02733,-6.44391 2.37306,-14.51692 2.99053,-17.94004 0.61746,-3.42311 1.12585,-7.15461 1.12973,-8.2922 0.005,-1.57143 0.3147,-2.01055 1.28753,-1.82773 2.75159,0.51709 7.97262,21.8892 9.28145,37.99329 0.89594,11.0237 -2.16222,19.53732 -9.5784,26.66537 -9.69773,9.32095 -22.26881,13.16392 -36.71322,11.22322 z m 22.08673,-3.63262 c 2.13424,-0.79194 5.81158,-2.85381 8.17188,-4.58191 12.14621,-8.89292 15.68574,-16.97697 14.11765,-32.24381 -0.90087,-8.77066 -3.72205,-23.40662 -5.55693,-28.82864 l -1.32238,-3.90764 -3.19478,19.64537 c -3.56659,21.93173 -4.73126,25.44306 -9.93555,29.95447 -1.69103,1.46588 -4.88903,3.52543 -7.10669,4.57677 -3.47793,1.6488 -4.98798,1.90845 -10.98691,1.88916 -7.79919,-0.0251 -11.38619,-1.00943 -14.29117,-3.92182 -3.31422,-3.32265 -7.33839,-9.83448 -8.70895,-14.09264 -0.71398,-2.21822 -2.6062,-6.98234 -4.20491,-10.58694 -2.47569,-5.58187 -2.95868,-7.51461 -3.25685,-13.03269 -0.19255,-3.56338 -0.48027,-6.34936 -0.63939,-6.19106 -0.4779,0.47544 -1.74153,8.93913 -3.16287,21.18465 -1.4391,12.39865 -1.23339,16.19964 1.17896,21.78331 2.02037,4.67638 7.63592,12.07826 11.05582,14.5727 8.63434,6.29785 26.30258,8.06299 37.84307,3.78072 z M 338.6028,338.95683 c -0.18352,-0.71335 -0.34879,-0.30801 -0.36725,0.90073 -0.0185,1.20875 0.13168,1.79238 0.33368,1.29698 0.20198,-0.4954 0.21709,-1.48437 0.0336,-2.19771 z m -71.22982,68.02301 c -18.15016,-3.33701 -26.51421,-11.90734 -30.44854,-31.19949 -3.88916,-19.07073 1.02628,-44.06796 11.74306,-59.71857 8.71689,-12.73 24.26053,-17.21112 39.6809,-11.43974 8.86235,3.31692 16.91636,10.78056 19.44473,18.0194 1.48733,4.25831 1.29609,10.15483 -0.48224,14.86899 -1.64349,4.35667 -6.71307,9.58052 -11.7993,12.15834 -3.77757,1.91456 -12.32978,4.10518 -19.32374,4.9497 -8.44352,1.01955 -18.78964,1.5378 -16.10836,0.80688 l 2.19803,-0.59918 -2.19581,-0.15959 c -1.50934,-0.1097 -0.40574,-0.56776 3.53014,-1.46522 17.53372,-3.99804 26.59963,-9.67143 29.20306,-18.27509 1.12547,-3.71936 0.43505,-5.96157 -2.81884,-9.15446 -7.10698,-6.97373 -17.61435,-8.05904 -24.00266,-2.47924 -3.38148,2.95351 -7.82327,12.17774 -10.32925,21.45065 -3.53627,13.08531 -2.58673,30.24113 2.05794,37.18209 2.45774,3.67281 5.51871,5.30221 14.83902,7.89902 9.2074,2.56536 36.98261,8.19104 40.49184,8.20134 1.23564,0.004 2.40372,-0.52121 2.83476,-1.27373 0.5814,-1.01502 1.00586,-1.112 2.051,-0.4686 3.63492,2.23768 0.85469,5.73996 -6.6255,8.34622 -9.33064,3.251 -32.34559,4.48202 -43.94024,2.35028 z m 29.19509,-1.2982 c 9.70051,-1.17286 15.16988,-2.55893 19.02956,-4.82254 1.4048,-0.82388 2.55441,-1.57494 2.55469,-1.66902 2.7e-4,-0.0941 -1.73607,-0.0321 -3.85855,0.13777 -7.78493,0.62302 -46.06054,-7.8087 -52.84474,-11.64115 -2.31462,-1.30755 -4.24701,-3.11244 -5.27081,-4.92304 -2.2789,-4.03028 -4.55555,-14.52431 -4.53564,-20.90672 0.0422,-13.62959 5.76029,-31.91647 12.07168,-38.60822 4.8258,-5.11662 12.2835,-6.5471 19.56689,-3.75317 9.98406,3.82991 13.96537,10.98814 10.19509,18.33037 -3.24499,6.31928 -6.78336,9.24704 -15.66666,12.96311 l -6.01042,2.51428 4.39388,-0.4533 c 10.4663,-1.07979 19.11034,-4.17826 24.33127,-8.7216 15.08893,-13.13065 3.31962,-36.08905 -20.48844,-39.96684 -9.91586,-1.61507 -20.00887,1.88604 -26.95554,9.35048 -9.81379,10.54523 -16.75345,33.06621 -15.81502,51.32376 0.62296,12.11989 4.57928,24.92554 9.29083,30.07224 8.97271,9.8014 26.61662,13.60226 50.01193,10.77359 z m -25.68448,-52.22133 c -0.50271,-0.20471 -1.32631,-0.20713 -1.83021,-0.005 -0.5039,0.20175 -0.0926,0.36925 0.91402,0.3722 1.00662,0.003 1.4189,-0.16212 0.91619,-0.36682 z"
       style="fill:#000000;stroke-width:0.732345" />
    <path
       id="path1155"
       d="m 161.47361,408.46428 c -2.92583,-1.1772 -3.80429,-8.57221 -4.8015,-40.42006 -0.79821,-25.49217 -0.36101,-34.88911 2.00781,-43.1547 4.56047,-15.91295 12.37793,-21.4323 30.35613,-21.4323 7.25694,0 7.88302,0.10901 11.76355,2.04813 9.26936,4.63195 14.82791,12.22558 17.79784,24.31391 3.87937,15.78996 4.85877,24.32733 5.16353,45.01053 0.15914,10.80039 0.081,20.14244 -0.17365,20.76011 -0.32521,0.78881 -0.83972,-0.15186 -1.72884,-3.1608 -2.88567,-9.76563 -9.22308,-35.47459 -11.75024,-47.66714 -3.82443,-18.45133 -6.11499,-23.81456 -11.87054,-27.79419 -2.50203,-1.73001 -3.53575,-2.00577 -8.26977,-2.2061 -2.97567,-0.12591 -7.06099,0.11375 -9.0785,0.53258 -6.95907,1.4447 -9.69416,4.56082 -12.45173,14.18639 -1.49468,5.21736 -1.51305,5.71644 -1.51305,41.0928 v 35.81129 l -1.55588,1.26033 c -1.56841,1.27047 -2.35989,1.43693 -3.89516,0.81922 z"
       style="fill:#008080;fill-opacity:1;stroke-width:0.659051" />
    <path
       id="path1157"
       d="m 271.0547,405.53819 c -14.01339,-2.02088 -23.33258,-7.62769 -27.6384,-16.62843 -4.28626,-8.95983 -5.29099,-14.33489 -5.2554,-28.1151 0.0298,-11.53914 0.14337,-12.61513 2.11953,-20.08089 5.33691,-20.16239 14.74689,-32.13903 28.03025,-35.67577 19.04715,-5.07137 42.47252,12.83105 38.08278,29.10409 -2.42267,8.98095 -13.67478,16.41681 -26.96102,17.81695 l -3.76438,0.3967 4.93584,-2.4209 c 6.67935,-3.27605 9.91306,-6.08061 12.40774,-10.76111 4.6087,-8.6468 1.13798,-15.88683 -9.52901,-19.87787 -8.25159,-3.08731 -16.61738,-0.9149 -21.49011,5.58052 -7.43084,9.90541 -12.28108,32.70824 -9.7748,45.95507 2.13553,11.28728 5.04104,15.78718 11.85203,18.35579 9.4596,3.56747 36.33297,9.46714 46.84932,10.28511 l 5.61015,0.43636 -3.42686,1.56114 c -8.42216,3.83683 -29.50672,5.87687 -42.04766,4.06834 z"
       style="fill:#008080;fill-opacity:1;stroke-width:0.659051" />
    <path
       id="path1159"
       d="m 363.98089,407.11635 c -8.47645,-1.17224 -16.26786,-4.81451 -20.01581,-9.35683 -6.65192,-8.06178 -9.31196,-14.18529 -9.31196,-21.4365 0,-3.97109 3.01376,-29.96567 3.53454,-30.48645 0.12759,-0.12759 0.3867,2.22192 0.57581,5.22114 0.29207,4.6323 0.91435,6.89153 4.13414,15.00935 4.72296,11.90762 6.37493,15.24857 9.67902,19.57486 4.04079,5.29091 6.95026,6.41413 16.67667,6.43814 7.47581,0.0184 8.11953,-0.0872 11.76284,-1.93149 4.88708,-2.47383 9.34037,-6.3794 11.01342,-9.65885 1.7911,-3.51083 3.46857,-10.96129 6.2024,-27.54775 1.27944,-7.76253 2.34716,-14.43542 2.37269,-14.82865 0.11208,-1.72547 2.01986,4.96085 3.61066,12.65445 5.40877,26.15854 4.19625,35.48135 -5.88857,45.27594 -9.40746,9.13672 -21.09616,12.905 -34.34585,11.07264 z"
       style="fill:#008080;fill-opacity:1;stroke-width:0.659051" />
    <path
       id="path1161"
       d="m 433.18124,408.28234 c -3.27788,-1.34161 -5.78811,-6.99642 -7.09933,-15.99272 -0.66675,-4.57454 -0.57707,-6.51745 0.71825,-15.56013 0.87463,-6.10588 1.47155,-13.44689 1.45916,-17.94501 -0.0293,-10.65014 1.15921,-24.26077 2.61594,-29.9565 3.40355,-13.30778 10.04038,-19.66136 23.39561,-22.39713 8.46642,-1.73431 14.99714,-1.9387 23.22199,-0.72676 9.22212,1.35888 13.33669,2.6653 16.12378,5.11946 l 2.17444,1.9147 -2.11124,-0.40231 c -4.46771,-0.85135 -24.71229,3.99116 -34.58272,8.2722 -3.36246,1.45838 -7.07309,3.5816 -8.24583,4.71827 -5.06952,4.91357 -6.05252,13.31018 -6.10431,52.14201 -0.0357,26.74923 -0.007,26.54731 -4.21293,29.75526 -2.22329,1.69579 -4.86637,2.07634 -7.35281,1.05866 z"
       style="fill:#008080;fill-opacity:1;stroke-width:0.659051" />
    <path
       id="path1163"
       d="m 539.9475,408.89798 c -5.23859,-0.60444 -16.52627,-4.36585 -22.40347,-7.46555 -5.3652,-2.82965 -14.6147,-12.10329 -16.9803,-17.02461 -6.42429,-13.36488 -5.56261,-32.9817 1.92845,-43.90306 3.11955,-4.54805 5.33691,-6.04914 9.58712,-6.49021 l 3.48331,-0.36148 -2.30667,1.21359 c -4.12856,2.17211 -4.76711,4.4248 -4.36052,15.38318 0.66461,17.91244 2.66632,25.77508 8.0395,31.57875 6.59501,7.1234 17.32861,11.28214 29.63401,11.4817 6.43367,0.10435 6.76501,0.0365 11.68401,-2.39306 9.88773,-4.88364 15.18718,-12.34052 16.02115,-22.54349 0.57398,-7.02202 -0.55742,-13.89982 -3.12416,-18.99194 -2.47622,-4.91253 -10.22922,-12.91057 -16.3384,-16.85481 -4.14305,-2.67485 -13.70393,-6.15575 -22.01875,-8.01652 -2.26343,-0.50654 -3.45436,-1.04309 -2.93881,-1.32404 1.71357,-0.9338 11.52836,-2.6497 17.34309,-3.03205 7.47261,-0.49136 12.22063,0.61744 20.76011,4.84808 4.93306,2.44394 7.32527,4.15733 11.27897,8.07838 8.43878,8.36912 12.06867,17.712 12.0476,31.00907 -0.0211,13.35132 -3.64664,22.49536 -12.43763,31.36959 -10.69527,10.79655 -23.48907,15.21648 -38.89861,13.43848 z"
       style="fill:#008080;fill-opacity:1;stroke-width:0.659051" />
    <path
       id="path1165"
       d="m 646.71376,416.24348 c -5.51773,-2.51297 -10.38489,-10.17617 -14.09306,-22.18912 -2.67719,-8.673 -3.58943,-13.29553 -5.65326,-28.64635 -3.50444,-26.0662 -3.81219,-42.99045 -1.03062,-56.67838 1.64719,-8.10576 3.92021,-23.56934 4.02031,-27.35062 0.16603,-6.27191 4.1205,20.31288 5.53888,37.23638 1.54186,18.39683 6.0542,49.63792 8.94793,61.9508 2.13228,9.07288 6.62804,22.42287 8.12881,24.13816 2.89528,3.30915 22.4484,5.18904 27.31957,2.62659 1.21174,-0.63742 2.31844,-1.04367 2.45934,-0.90278 0.58003,0.58003 -4.90341,5.14473 -8.09121,6.73555 -8.24857,4.11631 -21.91569,5.64432 -27.54669,3.07977 z"
       style="fill:#008080;fill-opacity:1;stroke-width:0.659051" />
    <path
       id="path1167"
       d="m 724.74788,569.21953 c -1.02864,-2.70249 -1.75246,-13.72557 -2.56411,-39.04877 -0.40082,-12.50549 -1.48099,-41.56964 -2.40036,-64.587 -0.91937,-23.01735 -1.93275,-56.23352 -2.25195,-73.81371 -0.557,-30.677 -0.80593,-35.21314 -1.97194,-35.93376 -0.73432,-0.45385 -0.84648,0.20464 -4.94177,29.01373 -8.85062,62.26154 -17.73507,107.82529 -23.08239,118.37771 -1.78123,3.51508 -2.36692,4.04948 -3.82499,3.48997 -1.87467,-0.71938 -3.70018,-5.87971 -7.97933,-22.55591 -4.22654,-16.47113 -5.48871,-20.16262 -7.08997,-20.73611 -1.49264,-0.53458 -3.33875,0.8831 -11.421,8.77053 -8.68775,8.47834 -13.33094,11.84098 -16.35025,11.84098 -2.71375,0 -6.48984,-4.124 -10.58794,-11.56343 -1.78797,-3.24578 -4.23102,-7.45843 -5.42899,-9.36144 -3.51743,-5.58756 -3.7462,-5.47459 -17.63196,8.70666 -7.78221,7.94784 -12.5431,12.31503 -13.72987,12.5945 -6.01643,1.41683 -11.05043,-3.07781 -17.05537,-15.22799 -3.12354,-6.32006 -4.35675,-8.21508 -5.34606,-8.21508 -1.43578,0 -11.07075,5.50365 -19.60874,11.20083 -9.37114,6.25312 -11.3788,7.25291 -14.55702,7.24922 -5.02013,-0.006 -8.779,-3.11039 -12.91624,-10.66788 -2.94089,-5.37215 -3.67832,-5.13783 -14.706,4.67281 -9.21579,8.19872 -13.04097,10.52842 -15.46979,9.42178 -2.53283,-1.15404 -4.92079,-4.95669 -7.30935,-11.6396 -2.89536,-8.10087 -4.66981,-11.55527 -5.9357,-11.55527 -2.79532,0 -7.70179,3.60451 -17.38507,12.77186 -7.10857,6.7298 -10.10686,8.97011 -12.01077,8.97436 -2.50948,0.006 -5.00326,-3.26802 -7.81058,-10.25303 -1.71163,-4.25878 -3.36035,-7.33451 -4.24089,-7.91146 -2.23154,-1.46217 -6.61057,0.17407 -16.17353,6.04329 -13.33468,8.1841 -15.46644,8.82949 -19.09081,5.77978 -2.60055,-2.18821 -3.80895,-4.58814 -7.25881,-14.41622 -1.52685,-4.34974 -3.03594,-8.18231 -3.35353,-8.51683 -0.97832,-1.03048 -3.25529,0.52592 -10.49896,7.17643 -3.80602,3.49435 -8.65912,7.52389 -10.78468,8.95453 -7.8027,5.25173 -13.12638,2.78127 -20.66033,-9.58746 -1.76505,-2.89772 -3.68344,-5.35992 -4.26311,-5.47155 -0.62547,-0.12045 -4.90137,3.51211 -10.51781,8.93536 -10.97298,10.59553 -11.97719,11.36101 -14.90409,11.36101 -5.45418,0 -9.77686,-3.92444 -14.5187,-13.1811 -4.73757,-9.24833 -4.41777,-9.32479 -17.39236,4.15896 -12.97974,13.48911 -15.83548,15.08985 -19.64503,11.01173 -1.00943,-1.0806 -3.85099,-5.70729 -6.31457,-10.28153 -2.46358,-4.57423 -4.91652,-8.48459 -5.45098,-8.68968 -1.67616,-0.6432 -6.38957,2.41151 -13.42325,8.69948 -11.87448,10.61554 -14.22995,11.78161 -17.92608,8.87424 -2.49864,-1.96543 -4.96562,-7.27626 -8.92412,-19.21152 -3.75397,-11.31856 -4.59476,-12.5285 -8.14698,-11.72396 -5.73178,1.2982 -11.55138,6.17566 -21.19033,17.75975 -4.17839,5.02158 -8.36585,9.63389 -9.30548,10.24955 -1.61003,1.05494 -1.78111,1.05361 -2.97079,-0.023 -1.64319,-1.48706 -1.6302,-2.49712 0.0189,-1.46726 1.71759,1.07265 2.44434,0.37983 11.6371,-11.09387 8.05869,-10.05826 12.21011,-13.85215 18.38658,-16.80309 4.50919,-2.15436 6.02012,-2.3152 8.09526,-0.86172 2.04224,1.43045 2.82427,3.14342 7.07169,15.48992 4.12206,11.98214 5.62278,14.93286 7.88329,15.50021 2.26438,0.56833 4.69279,-0.97972 11.93007,-7.60511 7.68739,-7.03743 12.34175,-10.39521 15.1885,-10.95738 3.12239,-0.6166 5.50074,2.03646 10.6833,11.91725 6.40422,12.20994 5.50307,12.33726 20.43019,-2.88643 7.6848,-7.83747 12.27472,-12.02661 13.49917,-12.32046 2.55709,-0.61365 4.93986,1.78992 8.43567,8.50931 4.86553,9.35216 9.24734,12.77437 14.1008,11.01278 1.10419,-0.40078 6.18748,-5.05526 11.564,-10.58854 12.26154,-12.61901 12.62268,-12.66611 18.72758,-2.44209 1.9965,3.34357 4.00356,6.53769 4.46015,7.09804 2.65911,3.26341 7.31866,4.20363 11.11172,2.24217 1.08788,-0.56256 5.59588,-4.30229 10.0178,-8.31052 4.42191,-4.00822 9.14796,-8.03328 10.50233,-8.94458 2.37611,-1.59878 2.52277,-1.61741 4.18072,-0.53108 1.90054,1.24528 2.89004,3.32133 6.46546,13.56503 3.20804,9.19116 4.44026,11.17545 6.93979,11.17545 2.94287,0 4.99912,-0.97459 12.86724,-6.09868 7.87451,-5.12825 13.39977,-7.70144 16.589,-7.72574 3.08842,-0.0235 5.4805,2.32745 7.99366,7.85633 4.87245,10.71927 4.78685,10.58145 6.57129,10.58145 1.24477,0 3.71258,-1.99 9.66221,-7.79141 8.55004,-8.33706 12.63354,-11.46776 16.93944,-12.98697 4.62592,-1.63212 6.02003,-0.10174 10.82325,11.88119 1.74355,4.34974 3.60291,8.5759 4.13193,9.39148 1.94998,3.00627 4.05108,1.87896 15.06863,-8.08482 12.20066,-11.03372 13.77493,-11.17693 19.28939,-1.75476 3.16524,5.40821 5.1383,7.31506 8.04269,7.7728 2.83747,0.44719 5.99169,-1.17704 20.13555,-10.36864 15.34246,-9.9705 17.68885,-10.43539 20.66006,-4.09335 6.07118,12.95895 7.47024,15.4153 10.22771,17.95705 1.70524,1.57184 3.56932,2.69079 4.48263,2.69079 2.49333,0 6.33931,-3.2545 14.14525,-11.9698 7.61599,-8.50323 12.40031,-12.65305 15.47837,-13.42559 2.62021,-0.65763 5.07088,2.21241 10.6921,12.52183 2.53734,4.65354 5.39963,9.30553 6.36064,10.33775 3.51657,3.77716 6.43337,2.23309 18.02424,-9.54149 8.80078,-8.94027 10.65602,-10.23439 13.32588,-9.29545 2.81262,0.98914 4.55001,5.42286 8.77928,22.40417 4.32969,17.38456 4.98448,19.39916 6.30515,19.39916 1.34051,0 2.55268,-3.46128 5.12666,-14.6389 7.13511,-30.98464 17.23083,-94.7426 23.09296,-145.84002 1.31765,-11.4854 5.65039,-53.87263 5.65039,-55.27788 0,-0.17478 0.47628,-0.79405 1.0584,-1.37617 0.81717,-0.81718 1.2678,-0.88462 1.97716,-0.29591 0.75568,0.62716 0.92387,5.28102 0.94758,26.22003 0.0649,57.32232 1.23291,121.96441 2.87733,159.24487 0.91136,20.66125 1.96623,47.05624 2.34418,58.65554 0.73295,22.49462 1.12004,28.00967 1.96594,28.00967 1.74095,0 2.71403,-2.89256 17.48913,-51.98771 11.75097,-39.04652 13.65739,-44.98774 15.18254,-47.31541 1.25496,-1.91532 4.86708,-2.10096 6.46762,-0.33239 1.70035,1.87887 3.43794,7.67198 5.39221,17.97762 4.41673,23.29127 5.51962,27.50353 7.35777,28.10149 0.42875,0.13948 2.94962,-1.78793 5.60194,-4.28314 7.67714,-7.2224 13.44406,-11.85804 16.98246,-13.65109 1.80609,-0.91522 3.39404,-1.66403 3.52877,-1.66403 0.80217,0 -23.93058,24.29721 -25.11561,24.67332 -2.03655,0.64638 -4.96859,-1.61342 -6.67979,-5.14828 -1.42674,-2.94726 -3.38971,-11.17904 -5.99183,-25.12697 -1.73873,-9.32004 -3.08814,-14.1696 -3.94274,-14.1696 -1.2571,0 -2.75257,4.48492 -14.12428,42.35856 -15.93521,53.07244 -17.33208,56.96753 -22.3301,62.26578 -2.46854,2.61684 -3.56029,2.69747 -4.46159,0.32953 z"
       style="fill:#de1a49;fill-opacity:1;stroke-width:0.659051" />
  </g>
</svg>
